<?xml version="1.0" standalone="no"?>
<!DOCTYPE svg PUBLIC "-//W3C//DTD SVG 20010904//EN"
 "http://www.w3.org/TR/2001/REC-SVG-20010904/DTD/svg10.dtd">
<svg version="1.0" xmlns="http://www.w3.org/2000/svg"
 width="207.000000pt" height="207.000000pt" viewBox="0 0 207.000000 207.000000"
 preserveAspectRatio="xMidYMid meet">
<metadata>
Created by potrace 1.14, written by Peter Selinger 2001-2017
</metadata>
<g transform="translate(0.000000,207.000000) scale(0.100000,-0.100000)"
fill="#000000" stroke="none">
<path d="M513 1141 l-512 -516 24 -24 23 -24 406 409 406 409 22 -23 23 -22
-408 -408 -408 -408 25 -23 25 -23 405 407 c389 391 405 407 426 392 20 -14 8
-28 -384 -423 -224 -224 -406 -411 -406 -414 0 -4 9 -15 20 -25 21 -19 25 -15
428 388 l407 407 407 -407 407 -407 24 23 25 22 -404 407 c-222 224 -404 409
-404 413 0 4 7 12 16 20 14 11 67 -39 421 -394 l406 -408 24 22 c12 13 22 24
20 25 -1 2 -184 185 -406 409 l-405 406 23 22 22 22 406 -408 406 -408 23 23
23 23 -514 518 c-283 284 -518 516 -522 516 -5 -1 -238 -234 -520 -518z m546
362 l-22 -23 -19 22 c-22 26 -22 27 -1 50 16 18 17 18 40 -4 l23 -22 -21 -23z
m-86 -85 c-16 -18 -17 -18 -40 4 -22 20 -22 23 -6 40 16 18 17 18 40 -4 22
-20 22 -23 6 -40z m170 8 c-10 -12 -19 -23 -20 -25 -3 -5 -33 26 -33 35 0 4 7
16 17 26 15 17 17 17 35 1 17 -15 17 -17 1 -37z m-85 -85 c-7 -9 -14 -18 -15
-20 -2 -2 -12 4 -22 13 -18 16 -18 19 -3 37 15 17 17 17 34 2 15 -13 16 -19 6
-32z"/>
</g>
</svg>
